<svg xmlns="http://www.w3.org/2000/svg" fill="none" viewBox="0 0 57 45">
    <defs/>
    <g filter="url(#filter0_b)">
        <path stroke="#3FB4FD" stroke-linejoin="round" d="M.5.5h56v9H.5z"/>
    </g>
    <g filter="url(#filter1_b)">
        <path stroke="#FEC343" stroke-linejoin="round" d="M14.5 19.5h42v7h-42z"/>
    </g>
    <g filter="url(#filter2_b)">
        <path stroke="#85CC65" stroke-linejoin="round" d="M28.5 37.5h28v6h-28z"/>
    </g>
    <path stroke="#FEC343" d="M10.5 22.5c0 2.16-1.96 4-4.5 4s-4.5-1.84-4.5-4 1.96-4 4.5-4 4.5 1.84 4.5 4z"/>
    <path stroke="#85CC65" d="M24.5 40.5c0 2.16-1.96 4-4.5 4s-4.5-1.84-4.5-4 1.96-4 4.5-4 4.5 1.84 4.5 4zM10.5 40.5c0 2.16-1.96 4-4.5 4s-4.5-1.84-4.5-4 1.96-4 4.5-4 4.5 1.84 4.5 4z"/>
    <defs>
        <filter id="filter0_b" width="65" height="18" x="-4" y="-4" color-interpolation-filters="sRGB" filterUnits="userSpaceOnUse">
            <feFlood flood-opacity="0" result="BackgroundImageFix"/>
            <feGaussianBlur in="BackgroundImage" stdDeviation="2"/>
            <feComposite in2="SourceAlpha" operator="in" result="effect1_backgroundBlur"/>
            <feBlend in="SourceGraphic" in2="effect1_backgroundBlur" result="shape"/>
        </filter>
        <filter id="filter1_b" width="51" height="16" x="10" y="15" color-interpolation-filters="sRGB" filterUnits="userSpaceOnUse">
            <feFlood flood-opacity="0" result="BackgroundImageFix"/>
            <feGaussianBlur in="BackgroundImage" stdDeviation="2"/>
            <feComposite in2="SourceAlpha" operator="in" result="effect1_backgroundBlur"/>
            <feBlend in="SourceGraphic" in2="effect1_backgroundBlur" result="shape"/>
        </filter>
        <filter id="filter2_b" width="37" height="15" x="24" y="33" color-interpolation-filters="sRGB" filterUnits="userSpaceOnUse">
            <feFlood flood-opacity="0" result="BackgroundImageFix"/>
            <feGaussianBlur in="BackgroundImage" stdDeviation="2"/>
            <feComposite in2="SourceAlpha" operator="in" result="effect1_backgroundBlur"/>
            <feBlend in="SourceGraphic" in2="effect1_backgroundBlur" result="shape"/>
        </filter>
    </defs>
</svg>
